<?xml version="1.0" encoding="UTF-8" standalone="no"?>
<svg width="18px" height="18px" viewBox="0 0 18 18" version="1.1" xmlns="http://www.w3.org/2000/svg" xmlns:xlink="http://www.w3.org/1999/xlink" xmlns:sketch="http://www.bohemiancoding.com/sketch/ns">
    <!-- Generator: Sketch 3.3.3 (12081) - http://www.bohemiancoding.com/sketch -->
    <title>Shape Copy</title>
    <desc>Created with Sketch.</desc>
    <defs/>
    <g id="Page-1" stroke="none" stroke-width="1" fill="none" fill-rule="evenodd" sketch:type="MSPage">
        <g id="1-Help-non-logged-in" sketch:type="MSArtboardGroup" transform="translate(-510.000000, -202.000000)" fill="#000000" opacity="0.539999962">
            <path d="M522.502,213 L521.708,213 L521.432,212.726 C522.407,211.589 523,210.115 523,208.5 C523,204.91 520.09,202 516.5,202 C512.91,202 510,204.91 510,208.5 C510,212.09 512.91,215 516.5,215 C518.115,215 519.588,214.408 520.725,213.434 L521.001,213.708 L521.001,214.5 L525.999,219.491 L527.49,218 L522.502,213 L522.502,213 Z M516.5,213 C514.014,213 512,210.986 512,208.5 C512,206.015 514.014,204 516.5,204 C518.985,204 521,206.015 521,208.5 C521,210.986 518.985,213 516.5,213 L516.5,213 Z" id="Shape-Copy" sketch:type="MSShapeGroup"/>
        </g>
    </g>
</svg>