<?xml version="1.0" encoding="UTF-8"?>
<svg width="24px" height="24px" viewBox="0 0 24 24" version="1.1" xmlns="http://www.w3.org/2000/svg" xmlns:xlink="http://www.w3.org/1999/xlink">
    <!-- Generator: Sketch 50.2 (55047) - http://www.bohemiancoding.com/sketch -->
    <title>Icon/Flag/CAN</title>
    <desc>Created with Sketch.</desc>
    <defs>
        <polygon id="path-1" points="0 0 24 0 24 24 0 24"></polygon>
        <rect id="path-3" x="0" y="0" width="24" height="17" rx="1.71428571"></rect>
    </defs>
    <g id="Icon/Flag/CAN" stroke="none" stroke-width="1" fill="none" fill-rule="evenodd">
        <g id="reports">
            <g id="CA-Copy">
                <mask id="mask-2" fill="white">
                    <use xlink:href="#path-1"></use>
                </mask>
                <g id="Mask"></g>
                <g mask="url(#mask-2)">
                    <g transform="translate(0.000000, 4.000000)">
                        <mask id="mask-4" fill="white">
                            <use xlink:href="#path-3"></use>
                        </mask>
                        <rect stroke="#F5F5F5" stroke-width="0.5" x="0.25" y="0.25" width="23.5" height="16.5" rx="1.71428571"></rect>
                        <rect id="Mask" stroke="none" fill="#FF3131" fill-rule="evenodd" mask="url(#mask-4)" x="17.1428571" y="0" width="6.85714286" height="17"></rect>
                        <rect id="Rectangle-2" stroke="none" fill="#FF3131" fill-rule="evenodd" mask="url(#mask-4)" x="0" y="0" width="6.85714286" height="17"></rect>
                        <path d="M13.3019586,7.71112203 L13.7142857,5.66666667 L12.5714286,6.23333333 L12,4.53333333 L11.4285714,6.23333333 L10.2857143,5.66666667 L10.6980414,7.71112203 C10.7247693,7.84364799 10.6390031,7.97274878 10.5064771,7.9994767 C10.4264642,8.01561375 10.3436721,7.99080817 10.2857143,7.93333333 L9.91546915,7.56617357 C9.80408732,7.45571992 9.62448411,7.45571992 9.51310228,7.56617357 L9.14285714,7.93333333 L8,7.36666667 L8.57142857,8.5 L8.20457887,8.86379262 C8.09253463,8.97490316 8.09177771,9.15580586 8.20288826,9.2678501 C8.20344943,9.26841599 8.20401298,9.26897954 8.20457887,9.26954072 L9.71428571,10.7666667 L11.4285714,10.7666667 L11.7142857,12.4666667 L12.2857143,12.4666667 L12.5714286,10.7666667 L14.2857143,10.7666667 L15.7954211,9.26954072 C15.9074654,9.15843017 15.9082223,8.97752748 15.7971117,8.86548323 C15.7965506,8.86491734 15.795987,8.8643538 15.7954211,8.86379262 L15.4285714,8.5 L16,7.36666667 L14.8571429,7.93333333 L14.4868977,7.56617357 C14.3755159,7.45571992 14.1959127,7.45571992 14.0845309,7.56617357 L13.7142857,7.93333333 C13.6182897,8.02852936 13.463298,8.02788086 13.368102,7.93188487 C13.3106271,7.87392705 13.2858215,7.79113491 13.3019586,7.71112203 Z" id="Rectangle-66" stroke="none" fill="#FF3131" fill-rule="evenodd" mask="url(#mask-4)"></path>
                    </g>
                </g>
            </g>
        </g>
    </g>
</svg>