<?xml version="1.0" encoding="UTF-8"?>
<svg width="24px" height="24px" viewBox="0 0 24 24" version="1.1" xmlns="http://www.w3.org/2000/svg" xmlns:xlink="http://www.w3.org/1999/xlink">
    <!-- Generator: Sketch 50.2 (55047) - http://www.bohemiancoding.com/sketch -->
    <title>Icon/Flag/MY</title>
    <desc>Created with Sketch.</desc>
    <defs>
        <rect id="path-1" x="0" y="0" width="24" height="17" rx="2"></rect>
    </defs>
    <g id="Icon/Flag/MY" stroke="none" stroke-width="1" fill="none" fill-rule="evenodd">
        <g id="Group" transform="translate(0.000000, 3.500000)">
            <mask id="mask-2" fill="white">
                <use xlink:href="#path-1"></use>
            </mask>
            <use id="Mask" fill="#FFFFFF" xlink:href="#path-1"></use>
            <path d="M11.8675465,0 L24.9218476,0 L24.9218476,1.30762781 L11.8675465,1.30762781 L11.8675465,0 Z M11.8675465,2.61525561 L24.9218476,2.61525561 L24.9218476,3.92288342 L11.8675465,3.92288342 L11.8675465,2.61525561 Z M11.8675465,5.23051122 L24.9218476,5.23051122 L24.9218476,6.53813903 L11.8675465,6.53813903 L11.8675465,5.23051122 Z M11.8675465,7.84576684 L24.9218476,7.84576684 L24.9218476,9.15339464 L11.8675465,9.15339464 L11.8675465,7.84576684 Z M0,10.4610224 L24.9218476,10.4610224 L24.9218476,11.7686503 L0,11.7686503 L0,10.4610224 Z M0,13.0762781 L24.9218476,13.0762781 L24.9218476,14.3839059 L0,14.3839059 L0,13.0762781 Z M0,15.6915337 L24.9218476,15.6915337 L24.9218476,16.9991615 L0,16.9991615 L0,15.6915337 Z" id="Rectangle-537" fill="#E1244A" mask="url(#mask-2)"></path>
            <rect id="Rectangle-1568" fill="#0C3F8E" mask="url(#mask-2)" x="0" y="0" width="14.2410558" height="10.4610224"></rect>
            <path d="M8.36483013,1.98636828 C7.98829674,1.84591743 7.58073481,1.7691435 7.15524137,1.7691435 C5.24358076,1.7691435 3.69387365,3.31885062 3.69387365,5.23051122 C3.69387365,7.14217183 5.24358076,8.69187895 7.15524137,8.69187895 C7.58073481,8.69187895 7.98829674,8.61510501 8.36483013,8.47465417 C7.65401874,9.04378469 6.75210509,9.38415249 5.77069428,9.38415249 C3.47670155,9.38415249 1.61705302,7.52450395 1.61705302,5.23051122 C1.61705302,2.9365185 3.47670155,1.07686996 5.77069428,1.07686996 C6.75210509,1.07686996 7.65401874,1.41723776 8.36483013,1.98636828 Z M9.92433555,6.36583983 L8.72287061,7.72537887 L9.0366999,5.93837703 L7.22466834,5.84669265 L8.817472,4.97787684 L7.75937054,3.50400924 L9.43173493,4.2076155 L9.92433555,2.46141705 L10.4169362,4.2076155 L12.0893006,3.50400924 L11.0311991,4.97787684 L12.6240028,5.84669265 L10.8119712,5.93837703 L11.1258005,7.72537887 L9.92433555,6.36583983 Z" id="Oval-12" fill="#FFD34F" mask="url(#mask-2)"></path>
        </g>
    </g>
</svg>